# xmcd CD database file generated by Grip 3.2.0
# 
# Track frame offsets:
#       150
#       20822
#       39099
#       59731
#       76740
#       97415
#       113312
#       130209
#       149718
#       170313
#       190302
# 
# Disc length: 2852 seconds
# 
# Revision: 2
# Processed by: cddbd v1.5.2PL0 Copyright (c) Steve Scherf et al.
# Submitted via: Grip 3.2.0
# 
DISCID=970b220b
DTITLE=Mark Selby - Dirt
DYEAR=2006
DGENRE=Rock
TTITLE0=Reason Enough
TTITLE1=Back Door To My Heart
TTITLE2=Willin' To Burn
TTITLE3=If The World Was Mine
TTITLE4=Moon Over My Shoulder
TTITLE5=One Man
TTITLE6=You
TTITLE7=Desire
TTITLE8=Easier To Lie
TTITLE9=Unforgiven
TTITLE10=Dirt
EXTD=
EXTT0=
EXTT1=
EXTT2=
EXTT3=
EXTT4=
EXTT5=
EXTT6=
EXTT7=
EXTT8=
EXTT9=
EXTT10=
PLAYORDER=
